<svg width="16" height="17" viewBox="0 0 16 17" fill="none" xmlns="http://www.w3.org/2000/svg">
<path fill-rule="evenodd" clip-rule="evenodd" d="M2.48954 8.51786C2.29836 8.51786 2.14338 8.67284 2.14338 8.86401C2.14338 9.05519 2.29836 9.21017 2.48954 9.21017L8.01781 9.21017L8.01781 14.7384C8.01781 14.9296 8.17279 15.0846 8.36396 15.0846C8.55514 15.0846 8.71011 14.9296 8.71011 14.7384L8.71012 9.21017H14.2384C14.4296 9.21017 14.5845 9.05519 14.5845 8.86401C14.5845 8.67284 14.4296 8.51786 14.2384 8.51786H8.71012L8.71011 2.98959C8.71011 2.79841 8.55514 2.64343 8.36396 2.64343C8.17279 2.64343 8.01781 2.79841 8.01781 2.98959L8.01781 8.51786L2.48954 8.51786Z" fill="#DBDBDB"/>
<path d="M2.14338 8.86401L2.64338 8.86401V8.86401L2.14338 8.86401ZM2.48954 8.51786L2.48954 8.01786L2.48954 8.51786ZM2.48954 9.21017L2.48954 9.71017L2.48954 9.71017L2.48954 9.21017ZM8.01781 9.21017H8.51781V8.71017H8.01781V9.21017ZM8.01781 14.7384L8.51781 14.7384L8.51781 14.7384L8.01781 14.7384ZM8.36396 15.0846L8.36396 14.5846L8.36396 15.0846ZM8.71011 14.7384L9.21011 14.7384L9.21012 14.7384L8.71011 14.7384ZM8.71012 9.21017V8.71017H8.21012V9.21017H8.71012ZM8.71012 8.51786H8.21012V9.01786H8.71012V8.51786ZM8.71011 2.98959L9.21012 2.98959L9.21011 2.98959L8.71011 2.98959ZM8.36396 2.64343L8.36396 3.14343L8.36396 2.64343ZM8.01781 2.98959L8.51781 2.98959L8.51781 2.98959L8.01781 2.98959ZM8.01781 8.51786V9.01786L8.51781 9.01786L8.51781 8.51786H8.01781ZM2.64338 8.86401C2.64338 8.94898 2.5745 9.01786 2.48954 9.01786L2.48954 8.01786C2.02222 8.01786 1.64338 8.3967 1.64338 8.86401L2.64338 8.86401ZM2.48954 8.71017C2.5745 8.71017 2.64338 8.77905 2.64338 8.86401L1.64338 8.86401C1.64338 9.33133 2.02222 9.71017 2.48954 9.71017L2.48954 8.71017ZM8.01781 8.71017L2.48954 8.71017L2.48954 9.71017L8.01781 9.71017L8.01781 8.71017ZM8.51781 14.7384L8.51781 9.21017H7.51781L7.51781 14.7384L8.51781 14.7384ZM8.36396 14.5846C8.44893 14.5846 8.51781 14.6535 8.51781 14.7384L7.51781 14.7384C7.51781 15.2058 7.89664 15.5846 8.36396 15.5846L8.36396 14.5846ZM8.21012 14.7384C8.21012 14.6535 8.27899 14.5846 8.36396 14.5846L8.36396 15.5846C8.83128 15.5846 9.21011 15.2058 9.21011 14.7384L8.21012 14.7384ZM8.21012 9.21017L8.21012 14.7384L9.21012 14.7384L9.21012 9.21017H8.21012ZM14.2384 8.71017H8.71012V9.71017H14.2384V8.71017ZM14.0845 8.86401C14.0845 8.77905 14.1534 8.71017 14.2384 8.71017V9.71017C14.7057 9.71017 15.0845 9.33133 15.0845 8.86401H14.0845ZM14.2384 9.01786C14.1534 9.01786 14.0845 8.94898 14.0845 8.86401H15.0845C15.0845 8.3967 14.7057 8.01786 14.2384 8.01786V9.01786ZM8.71012 9.01786H14.2384V8.01786H8.71012V9.01786ZM8.21012 2.98959L8.21012 8.51786H9.21012L9.21012 2.98959L8.21012 2.98959ZM8.36396 3.14343C8.27899 3.14343 8.21012 3.07455 8.21012 2.98959L9.21011 2.98959C9.21011 2.52227 8.83128 2.14343 8.36396 2.14343L8.36396 3.14343ZM8.51781 2.98959C8.51781 3.07455 8.44893 3.14343 8.36396 3.14343L8.36396 2.14343C7.89664 2.14343 7.51781 2.52227 7.51781 2.98959L8.51781 2.98959ZM8.51781 8.51786L8.51781 2.98959L7.51781 2.98959L7.51781 8.51786H8.51781ZM2.48954 9.01786L8.01781 9.01786V8.01786L2.48954 8.01786L2.48954 9.01786Z" fill="#DBDBDB"/>
</svg>
